<?xml version="1.0" standalone="yes"?>
<svg xmlns="http://www.w3.org/2000/svg" width="7000" height="4000">
<path style="fill:#ffffff; stroke:none;" d="M0 0L0 4000L7000 4000L7000 0L0 0z"/>
<path style="fill:#010101; stroke:none;" d="M1860 1690L1860 2173L1861 2173C1872.58 2151.02 1891.52 2128.62 1899 2105C1917.47 2114.2 1931.91 2125.02 1953 2128.56C2013.83 2138.79 2075.4 2101.1 2091.85 2041C2101.7 2005 2096 1963.13 2096 1926C2096 1850.27 2095 1774.71 2095 1699L2174 1699C2174 1768.6 2171.99 1839.42 2175.04 1909C2177.31 1960.89 2182.66 2019.87 2166.66 2070C2144.22 2140.3 2073.64 2207.79 1996 2208L1996 2209L5121 2209L5121 2200L4823 2200L4823 1698L5121 1698L5121 1690L2523 1690L2523 1691C2553.34 1691.02 2586.16 1702.33 2613 1715.75C2713.79 1766.14 2773.12 1876.17 2756.57 1988C2738.14 2112.52 2625.02 2207.43 2500 2207.43C2371.54 2207.43 2258.77 2107.76 2243.29 1980C2229.7 1867.97 2293.46 1757.92 2396 1711.69C2420.58 1700.62 2449.77 1691.08 2477 1691L2459 1690L2423 1690L2297 1690L1860 1690z"/>
<path style="fill:#4d8df5; stroke:none;" d="M2477 1690.42C2431.44 1696.43 2390.14 1709.69 2352 1736.03C2325.07 1754.62 2302.05 1778.75 2284 1806C2207.54 1921.41 2238.74 2082.13 2352 2161.28C2375.05 2177.39 2400.94 2189.85 2428 2197.57C2461.5 2207.13 2497.46 2209.9 2532 2205.71C2569.21 2201.2 2605.02 2188.22 2637 2168.8C2767.27 2089.67 2798.25 1906.49 2703.6 1788C2687.43 1767.76 2668.57 1749.45 2647 1735C2621.82 1718.13 2594.48 1705 2565 1697.63C2537.14 1690.66 2505.7 1686.64 2477 1690.42z"/>
<path style="fill:#f19b01; stroke:none;" d="M3197 2092L3464 2092L3464 2199L3543 2199L3543 2092L3598 2092L3598 2013L3543 2013L3543 1852L3464 1852L3464 2013L3317 2013C3348.21 1936.94 3387.66 1863.35 3422.78 1789C3432.23 1768.99 3441.62 1748.92 3451.26 1729C3456.24 1718.7 3462.83 1708 3466 1697L3405 1697L3381.65 1698.03L3368.25 1725L3332.74 1801L3246.22 1986L3215.74 2051L3197 2092z"/>
<path style="fill:#bdd5fb; stroke:none;" d="M3660 1697L3660 2200L3739 2200L3739 1988L3928 1988L3928 1909L3739 1909L3739 1777L3958 1777L3958 1697L3660 1697M4444 1698L4444 2200L4742 2200L4742 2120L4523 2120L4523 1983L4712 1983L4712 1904L4523 1904L4523 1777L4742 1777L4742 1698L4444 1698M4823 1698L4823 2200L5121 2200L5121 2120L4902 2120L4902 1983L5091 1983L5091 1904L4902 1904L4902 1777L5121 1777L5121 1698L4823 1698z"/>
<path style="fill:#4d8df5; stroke:none;" d="M2095 1699C2095 1774.05 2096 1848.94 2096 1924C2096 1961.08 2101.62 2002.99 2092.12 2039C2077.08 2096 2022.66 2132.49 1965 2129.96C1949.13 2129.27 1933 2123.97 1919 2116.74C1912.2 2113.23 1906.23 2107.4 1899 2105C1890.97 2122.18 1880.02 2138.54 1870.58 2155C1868 2159.49 1860.3 2168.58 1861.02 2173.91C1861.71 2178.96 1872.02 2183.12 1876 2185.22C1892.71 2194.04 1910.49 2200.85 1929 2204.79C2003.35 2220.62 2082.12 2196.19 2130.92 2137C2184.39 2072.14 2178.49 1986.92 2175.04 1908C2172.01 1838.75 2174 1768.26 2174 1699L2095 1699M2831 1699L2831 2199L2980 2199C3028.12 2199 3074.36 2199.76 3115 2169.52C3187.15 2115.83 3199.17 1997.71 3124 1940.9C3105.82 1927.15 3086 1921.1 3064 1917C3073.84 1911.2 3082.28 1904.97 3089.54 1896C3137.32 1836.97 3105.71 1752.18 3045 1717.43C3012.12 1698.61 2976.6 1699 2940 1699L2831 1699z"/>
<path style="fill:#bdd5fb; stroke:none;" d="M4020 1699L4020 2199L4099 2199L4099 2005L4141 2005C4146.06 2005 4154.29 2003.45 4158.82 2006.03C4163.37 2008.62 4166.77 2015.76 4169.66 2020C4176.5 2030.05 4183.41 2040.08 4190.42 2050C4214.56 2084.12 4238.25 2118.59 4261.97 2153C4270.94 2166.01 4280.76 2187.88 4293.33 2197.4C4298.97 2201.68 4313.16 2199 4320 2199L4392 2199C4383.17 2181.26 4368.03 2165.08 4356.42 2149C4333.05 2116.63 4309.78 2084.16 4286.12 2052C4273.85 2035.33 4256.02 2017.07 4248 1998C4268.06 1994.55 4288.04 1978.96 4302 1965C4362.32 1904.68 4358 1802.84 4296 1745.09C4267.49 1718.53 4230.63 1702.85 4192 1699.17C4172.35 1697.3 4151.74 1699 4132 1699L4020 1699z"/>
<path style="fill:#010101; stroke:none;" d="M2499 1769.59C2471.05 1770.6 2442.84 1775.8 2418 1789.44C2388.09 1805.85 2362.47 1829.23 2345.43 1859C2303.87 1931.61 2318.29 2028.8 2383 2083.41C2399.44 2097.28 2417.78 2108.53 2438 2115.95C2461.06 2124.4 2485.48 2128.03 2510 2126.96C2534.63 2125.88 2560.23 2118.7 2582 2107.22C2662.23 2064.89 2700.19 1967.8 2666.55 1883C2656.23 1856.98 2639.99 1835.37 2620 1816.01C2603.44 1799.98 2581.78 1787.42 2560 1780C2540.53 1773.37 2519.68 1768.85 2499 1769.59M2910 1776L2910 1900C2941.22 1900 2983.69 1905.99 3011 1888.3C3051.36 1862.16 3043.87 1801.03 3001 1782.04C2974.25 1770.19 2938.66 1776 2910 1776M4099 1777L4099 1940C4139.56 1940 4190.4 1948.33 4226 1924.92C4280.39 1889.16 4272.26 1809.77 4213 1784.43C4179.29 1770.01 4134.9 1777 4099 1777M4902 1777L4902 1904L5091 1904L5091 1983L4902 1983L4902 2120L5121 2120L5121 1777L4902 1777z"/>
<path style="fill:#f19b01; stroke:none;" d="M2424 1874L2424 2028L2581 2028L2581 1874L2424 1874z"/>
<path style="fill:#010101; stroke:none;" d="M2910 1970L2910 2122L2985 2122C3011.28 2122 3035.59 2122.47 3059 2108.55C3108.67 2079 3111.66 2005.57 3057 1979.49C3035.34 1969.15 3013.24 1970 2990 1970L2910 1970M1860 2175L1860 2209L1953 2209L1953 2208C1919.11 2207.72 1888.62 2190.93 1860 2175z"/>
</svg>
